<?xml version="1.0" encoding="UTF-8"?>
<svg id="Layer_2" xmlns="http://www.w3.org/2000/svg" viewBox="0 0 666.8 166.5">
<defs><style>.cls-1{fill:#535054;}.cls-2{fill:#e3b23c;}</style></defs>
<g id="LOGO"><g id="RODE">
<g id="Lettering">
<path class="cls-1" d="M421.5,.5h-87V10.5h12.5c5.78,0,10.64,3.92,12.07,9.25,.28,1.03,.43,2.13,.43,3.25v121c0,1.12-.15,2.22-.43,3.25-1.43,5.33-6.29,9.25-12.07,9.25h-12.5v10h87c53.85,0,97.5-37.16,97.5-83S475.35,.5,421.5,.5Zm0,156h-21V10.5h21c28.99,0,52.5,32.68,52.5,73s-23.51,73-52.5,73Z"/>
<ellipse class="cls-1" cx="252.5" cy="83" rx="89.5" ry="83"/>
<path class="cls-1" d="M666.8,116l-2.34,40.5-.57,10h-154.39v-10h11.25c1.24,0,2.45-.17,3.58-.49,5.29-1.49,9.17-6.19,9.17-11.76V24.12c.03-.37,.05-.74,.05-1.12s-.02-.75-.05-1.12c-.55-6.38-5.8-11.38-12.2-11.38h-12.8V.5h148.5V43h-10v-.25c0-17.81-14.33-32.25-32-32.25h-40.5V76h27c2.74,0,5.35-.54,7.74-1.52,.23-.1,.47-.2,.69-.3,.86-.39,1.7-.84,2.5-1.34,.39-.25,.78-.51,1.15-.79h.01c.59-.43,1.15-.89,1.69-1.39h0c3.79-3.46,6.28-8.32,6.65-13.75,.02-.25,.03-.5,.04-.75,.01-.27,.02-.54,.02-.81v-8.35h10V116h-9.77v-9.39c0-5.29-1.99-10.12-5.27-13.79-.05,0-.11,.03-.16,.04-.01-.01-.02-.03-.03-.04-3.75-4.18-9.2-6.82-15.27-6.82h-27v70.5h49.75c15.8,0,28.95-11.36,31.71-26.36,.36-1.91,.54-3.88,.54-5.89,0-.71-.02-1.42-.07-2.13l.35-6.12h10.02Z"/>
<path class="cls-1" d="M182.7,156c-5.9,0-11.24-2.44-15.05-6.36l-3.3-4.43-46.51-62.38c22.93-7.2,38.66-22,38.66-39.08C156.5,19.75,125.46,.25,87,0H0V10H12.5c6.84,0,12.4,5.5,12.49,12.32h.01v121.18c0,6.9-5.6,12.5-12.5,12.5H0v10H87v-10h-8.5c-6.9,0-12.5-5.6-12.5-12.5v-55.5h4.56l50.69,68,7.46,10h61.29v-10h-7.3ZM105.13,65.77c-5.05,7.48-12.64,12.23-21.13,12.23h-18V10h18c15.19,0,27.5,15.22,27.5,34,0,8.28-2.4,15.87-6.37,21.77Z"/>
</g>
<rect id="Front" class="cls-2" x="254" y="59.5" width="175" height="50"/>
</g></g>
</svg>